<?xml version="1.0" standalone="no"?>
<svg xmlns:xlink="http://www.w3.org/1999/xlink" id="wave" style="transform:rotate(0deg); transition: 0.3s" viewBox="0 0 1440 490" version="1.1" xmlns="http://www.w3.org/2000/svg"><defs><linearGradient id="sw-gradient-0" x1="0" x2="0" y1="1" y2="0"><stop stop-color="rgba(20, 183, 137, 1)" offset="0%"/><stop stop-color="rgba(20, 183, 137, 1)" offset="100%"/></linearGradient></defs><path style="transform:translate(0, 0px); opacity:1" fill="url(#sw-gradient-0)" d="M0,196L60,163.3C120,131,240,65,360,57.2C480,49,600,98,720,171.5C840,245,960,343,1080,334.8C1200,327,1320,212,1440,138.8C1560,65,1680,33,1800,81.7C1920,131,2040,261,2160,285.8C2280,310,2400,229,2520,163.3C2640,98,2760,49,2880,73.5C3000,98,3120,196,3240,236.8C3360,278,3480,261,3600,269.5C3720,278,3840,310,3960,285.8C4080,261,4200,180,4320,179.7C4440,180,4560,261,4680,318.5C4800,376,4920,408,5040,416.5C5160,425,5280,408,5400,343C5520,278,5640,163,5760,130.7C5880,98,6000,147,6120,155.2C6240,163,6360,131,6480,163.3C6600,196,6720,294,6840,351.2C6960,408,7080,425,7200,367.5C7320,310,7440,180,7560,106.2C7680,33,7800,16,7920,16.3C8040,16,8160,33,8280,49C8400,65,8520,82,8580,89.8L8640,98L8640,490L8580,490C8520,490,8400,490,8280,490C8160,490,8040,490,7920,490C7800,490,7680,490,7560,490C7440,490,7320,490,7200,490C7080,490,6960,490,6840,490C6720,490,6600,490,6480,490C6360,490,6240,490,6120,490C6000,490,5880,490,5760,490C5640,490,5520,490,5400,490C5280,490,5160,490,5040,490C4920,490,4800,490,4680,490C4560,490,4440,490,4320,490C4200,490,4080,490,3960,490C3840,490,3720,490,3600,490C3480,490,3360,490,3240,490C3120,490,3000,490,2880,490C2760,490,2640,490,2520,490C2400,490,2280,490,2160,490C2040,490,1920,490,1800,490C1680,490,1560,490,1440,490C1320,490,1200,490,1080,490C960,490,840,490,720,490C600,490,480,490,360,490C240,490,120,490,60,490L0,490Z"/></svg>